<?xml version="1.0" standalone="no"?>
<!DOCTYPE svg PUBLIC "-//W3C//DTD SVG 20010904//EN"
 "http://www.w3.org/TR/2001/REC-SVG-20010904/DTD/svg10.dtd">
<svg version="1.0" xmlns="http://www.w3.org/2000/svg"
 width="1027.000000pt" height="1027.000000pt" viewBox="0 0 1027.000000 1027.000000"
 preserveAspectRatio="xMidYMid meet">
<metadata>
Created by potrace 1.14, written by Peter Selinger 2001-2017
</metadata>
<g transform="translate(0.000000,1027.000000) scale(0.100000,-0.100000)"
fill="#000000" stroke="none">
<path d="M9230 10166 c-100 -37 -449 -219 -470 -245 -3 -3 -25 -19 -50 -35
-44 -29 -187 -135 -266 -198 -91 -74 -261 -241 -358 -352 -28 -33 -58 -67 -66
-76 -37 -39 -143 -186 -221 -305 -81 -122 -249 -407 -249 -421 0 -3 -30 -50
-67 -103 -37 -53 -87 -125 -112 -161 -24 -36 -46 -67 -47 -69 -6 -7 -60 20
-89 45 -17 14 -35 29 -40 32 -6 4 -25 26 -43 48 -29 38 -35 41 -69 37 -202
-23 -396 -235 -534 -583 -38 -98 -99 -282 -95 -287 1 -2 38 31 81 72 43 41 80
75 82 75 5 0 -92 -154 -219 -344 -65 -98 -117 -180 -115 -183 2 -2 25 27 50
64 25 38 67 97 92 133 26 36 54 76 63 90 9 14 32 46 52 71 19 25 42 57 50 69
31 48 145 196 159 208 47 38 214 141 253 155 10 4 2 -16 -25 -57 -46 -68 -47
-70 -106 -167 -23 -37 -84 -130 -136 -208 -52 -78 -92 -141 -88 -141 5 0 15
12 25 28 9 15 70 104 137 197 66 94 126 178 133 189 7 10 24 33 38 51 14 17
36 47 50 65 53 71 69 86 94 88 l25 2 -21 -38 c-19 -32 -130 -212 -176 -282
-16 -25 -16 -25 4 -5 10 11 35 43 54 70 36 52 56 78 78 100 6 8 12 18 12 23 0
6 3 12 8 14 4 2 31 33 60 71 38 47 60 67 76 67 l23 0 -23 -47 c-30 -61 -30
-70 3 -118 49 -74 159 -154 188 -138 57 33 549 522 725 722 30 35 64 73 75 85
52 59 79 91 176 212 57 71 131 165 163 209 33 44 71 96 86 115 44 59 193 289
253 391 66 113 202 383 222 439 1 3 7 18 13 33 7 16 12 33 12 38 0 5 4 9 9 9
4 0 3 -21 -4 -47 -20 -77 -57 -197 -63 -208 -4 -5 -7 -17 -9 -25 -1 -8 -10
-32 -19 -55 -10 -22 -26 -60 -37 -85 -67 -156 -226 -449 -249 -458 -4 -2 -8
-8 -8 -14 0 -23 -215 -306 -330 -433 -70 -78 -295 -300 -405 -400 -54 -49
-113 -103 -130 -120 -18 -16 -56 -52 -86 -79 -281 -256 -373 -345 -367 -352 3
-2 16 -7 28 -9 17 -3 36 7 68 36 30 29 47 38 54 31 24 -24 7 -247 -25 -337 -2
-5 -7 -19 -11 -30 -5 -11 -15 -38 -23 -60 -38 -102 -147 -302 -230 -424 -24
-35 -42 -66 -39 -68 2 -2 31 9 65 26 33 17 63 31 66 31 7 0 -117 -164 -127
-168 -5 -2 -8 -8 -8 -14 0 -6 -13 -27 -28 -47 -35 -43 -70 -100 -55 -86 6 6
35 39 63 75 55 70 109 136 125 154 6 6 22 27 36 46 47 62 73 86 129 120 30 18
66 40 79 48 13 9 -17 -38 -66 -104 -114 -152 -156 -225 -57 -99 21 28 41 52
44 55 3 3 41 50 85 105 44 55 118 138 165 185 152 151 213 265 219 407 l2 62
-42 26 c-65 42 -125 110 -163 186 -29 58 -33 74 -24 89 7 11 14 18 15 16 2 -2
20 13 41 33 147 140 192 181 192 174 0 -5 -8 -16 -17 -24 -47 -42 -185 -190
-182 -194 7 -7 371 346 544 528 52 54 119 132 150 172 30 41 61 80 68 87 41
41 267 358 267 375 0 3 8 17 19 31 75 106 248 493 286 642 3 8 18 66 34 128
16 61 27 112 25 112 -2 0 1 11 6 25 5 14 12 51 16 82 11 106 12 113 10 112 0
0 -17 -6 -36 -13z m-683 -549 c4 -4 6 -26 4 -48 -2 -39 -19 -77 -48 -107 -7
-7 -13 -17 -13 -21 0 -4 -21 -19 -47 -33 -39 -21 -53 -24 -75 -16 -25 8 -28
15 -28 51 0 83 98 188 171 183 16 -1 32 -5 36 -9z m-267 -323 c30 -79 -63
-207 -160 -218 -34 -4 -42 4 -45 47 -7 81 89 188 174 194 15 1 25 -6 31 -23z
m-265 -355 c-5 -86 -76 -166 -155 -176 -35 -5 -41 -3 -48 18 -19 51 44 159
113 194 17 8 44 15 62 15 l32 0 -4 -51z m-632 -728 c-16 -28 -33 -41 -33 -25
0 10 42 65 46 61 3 -2 -3 -18 -13 -36z m717 -55 c0 -2 -8 -10 -17 -17 -16 -13
-17 -12 -4 4 13 16 21 21 21 13z"/>
<path d="M4345 9893 c-113 -24 -281 -103 -370 -175 -134 -108 -189 -157 -360
-323 -237 -230 -378 -340 -504 -395 l-24 -11 23 -24 c13 -14 31 -25 40 -25 9
0 49 21 90 46 115 70 207 143 312 247 27 26 50 47 52 47 2 0 43 39 92 88 171
168 266 250 384 331 64 44 214 109 290 124 88 19 187 16 285 -8 39 -9 77 -18
85 -20 53 -13 343 -148 444 -207 102 -60 404 -209 426 -210 3 0 10 -3 15 -8 9
-6 100 -39 130 -46 138 -33 172 -37 330 -38 143 0 292 10 405 28 58 10 169 26
215 31 28 3 81 9 120 14 111 13 338 6 415 -12 8 -2 31 -7 50 -11 95 -22 209
-95 304 -192 l72 -74 18 30 c16 28 16 33 2 53 -26 38 -73 87 -84 87 -5 0 -12
6 -15 14 -7 18 -132 98 -192 122 -127 52 -205 63 -410 60 -155 -3 -220 -9
-375 -31 -14 -2 -50 -6 -80 -10 -30 -3 -62 -8 -70 -10 -15 -4 -89 -12 -180
-22 -84 -8 -315 -9 -350 -2 -19 4 -48 10 -65 13 -16 3 -55 13 -85 22 -30 8
-61 16 -67 16 -7 1 -13 5 -13 10 0 4 -3 7 -7 6 -5 -2 -28 6 -53 16 -25 10 -46
17 -48 17 -3 -2 -355 179 -367 189 -14 11 -290 150 -298 150 -4 0 -30 11 -59
24 -70 31 -162 59 -238 73 -66 12 -221 10 -285 -4z"/>
<path d="M4498 9635 c-2 -2 -28 -5 -58 -9 -77 -8 -152 -31 -244 -77 -140 -70
-269 -174 -538 -434 -57 -55 -130 -124 -163 -153 -67 -59 -235 -177 -235 -166
0 5 -5 3 -10 -2 -7 -7 -4 -37 9 -93 11 -46 22 -85 24 -87 10 -10 197 102 260
155 91 77 130 112 187 167 321 310 405 380 547 453 162 84 311 88 523 15 68
-24 284 -127 385 -184 264 -149 483 -240 648 -268 67 -11 394 -7 492 7 50 7
105 15 123 17 17 2 49 6 70 9 20 3 60 8 87 11 28 3 75 9 105 14 62 9 329 7
375 -4 93 -21 172 -56 231 -103 53 -41 105 -92 126 -121 l16 -23 41 60 c22 34
41 65 41 71 0 5 5 10 10 10 20 0 9 20 -38 67 -120 121 -246 186 -426 217 -72
12 -290 14 -391 2 -22 -2 -65 -7 -95 -11 -30 -3 -66 -8 -80 -10 -73 -12 -169
-25 -225 -31 -145 -14 -190 -17 -255 -18 -251 -1 -343 32 -890 322 -194 102
-378 173 -495 188 -47 6 -153 12 -157 9z"/>
<path d="M2649 8886 c-2 -2 -32 -7 -66 -11 -34 -3 -71 -8 -82 -10 -11 -2 -46
-6 -78 -10 -32 -3 -69 -7 -83 -10 -14 -2 -42 -7 -62 -10 -82 -11 -115 -17
-158 -27 -25 -5 -56 -12 -70 -14 -14 -3 -65 -19 -115 -35 -222 -74 -363 -192
-464 -389 -31 -59 -94 -230 -85 -230 2 0 0 -8 -5 -19 -6 -10 -13 -31 -16 -47
-9 -51 -14 -75 -19 -92 -3 -9 -8 -35 -12 -57 -11 -77 -12 -84 -18 -112 -3 -15
-8 -44 -11 -63 -6 -38 -22 -130 -30 -170 -4 -22 -12 -58 -29 -145 -15 -72 -62
-212 -95 -280 -77 -162 -110 -200 -557 -635 -255 -248 -349 -383 -403 -580
-18 -62 -20 -96 -17 -210 2 -88 9 -156 21 -195 9 -33 18 -64 19 -70 8 -42 96
-242 188 -427 144 -291 170 -348 203 -443 30 -87 30 -90 48 -190 17 -90 11
-344 -8 -415 -2 -8 -7 -33 -10 -55 -3 -23 -7 -52 -10 -65 -3 -14 -8 -41 -11
-60 -11 -59 -14 -73 -25 -135 -6 -33 -13 -72 -15 -87 -2 -16 -6 -43 -9 -60 -3
-18 -8 -46 -11 -63 -2 -16 -6 -106 -9 -200 -3 -142 -1 -183 15 -251 34 -145
95 -257 199 -362 120 -122 251 -207 593 -385 345 -180 493 -288 608 -442 25
-33 50 -69 57 -80 51 -83 105 -186 224 -425 164 -328 245 -455 361 -567 105
-101 252 -177 383 -197 17 -2 50 -8 75 -12 53 -8 246 -8 310 1 25 4 61 8 80
10 19 2 53 5 75 9 22 3 78 10 125 16 47 6 96 13 110 15 14 3 48 7 75 10 28 3
75 8 105 11 103 12 285 10 370 -3 158 -24 365 -108 640 -258 371 -203 564
-276 765 -287 35 -2 149 14 195 27 30 8 62 17 72 19 34 9 146 69 218 118 108
73 211 163 416 363 71 69 133 127 208 194 63 56 187 141 256 176 58 29 201 78
262 90 13 3 48 9 78 15 30 6 64 12 75 14 11 2 45 7 75 11 30 4 63 9 73 11 10
2 48 6 85 9 37 3 74 8 82 10 8 2 35 7 60 10 402 47 655 155 797 340 59 77 103
164 142 281 33 101 69 240 76 294 1 8 5 33 9 55 4 22 9 54 11 70 3 17 8 44 12
60 4 17 7 35 8 40 4 48 54 292 66 322 5 13 6 23 4 23 -9 0 47 147 86 225 74
150 124 206 545 615 246 238 341 371 397 550 44 144 39 333 -14 487 -10 29
-15 53 -12 53 3 0 1 6 -4 13 -6 6 -16 30 -23 52 -18 54 -82 192 -197 420 -141
281 -191 415 -210 560 -11 85 -6 274 11 375 2 14 7 47 11 73 7 52 9 63 25 142
14 69 23 127 24 148 0 9 4 17 9 17 4 0 6 4 3 9 -3 5 -1 33 4 62 17 96 18 105
26 195 12 142 6 259 -20 381 -19 91 -97 228 -176 311 -124 132 -229 203 -535
365 -195 103 -185 97 -297 162 -116 66 -244 160 -303 221 -24 24 -47 44 -52
44 -4 0 -16 -12 -27 -26 l-18 -26 43 -44 c78 -79 342 -264 377 -264 6 0 12 -3
14 -7 2 -5 46 -30 98 -57 195 -101 285 -149 349 -188 294 -179 432 -348 469
-578 13 -83 5 -361 -13 -430 -2 -8 -6 -35 -9 -60 -7 -50 -11 -73 -31 -175 -12
-61 -22 -119 -31 -175 -1 -8 -5 -40 -9 -70 -3 -30 -9 -64 -12 -75 -9 -31 -11
-315 -2 -355 4 -19 10 -46 13 -60 12 -59 17 -77 37 -139 12 -36 25 -70 29 -76
4 -5 11 -21 15 -35 4 -14 70 -151 145 -305 157 -318 213 -458 235 -585 16 -90
21 -184 11 -226 -2 -12 -7 -37 -10 -57 -12 -73 -94 -248 -145 -309 -6 -7 -28
-33 -48 -58 -36 -44 -208 -217 -449 -451 -140 -135 -195 -198 -256 -294 -85
-130 -143 -291 -182 -495 -9 -47 -18 -94 -20 -105 -2 -11 -7 -40 -11 -65 -4
-25 -9 -54 -11 -65 -2 -11 -9 -49 -15 -85 -6 -36 -13 -78 -16 -95 -21 -122
-76 -309 -121 -405 -66 -142 -191 -268 -327 -329 -31 -14 -158 -59 -185 -66
-37 -10 -159 -34 -195 -40 -22 -3 -47 -7 -55 -10 -14 -3 -83 -12 -168 -20 -18
-2 -45 -6 -60 -9 -15 -3 -52 -8 -82 -11 -30 -3 -73 -9 -95 -12 -22 -3 -49 -7
-60 -9 -11 -1 -20 -3 -20 -4 0 -1 -11 -3 -25 -5 -42 -6 -73 -12 -120 -25 -25
-7 -52 -14 -60 -15 -104 -23 -280 -112 -380 -191 -88 -71 -175 -148 -275 -244
-106 -102 -237 -226 -271 -255 -125 -108 -241 -183 -349 -225 -41 -15 -75 -27
-75 -24 0 2 -12 -1 -27 -7 -49 -19 -187 -18 -279 2 -89 19 -200 55 -221 72 -7
5 -13 7 -13 3 0 -6 -266 129 -400 203 -66 36 -276 143 -290 146 -3 1 -16 6
-30 12 -184 77 -351 106 -555 99 -77 -3 -156 -8 -175 -10 -19 -2 -57 -7 -85
-10 -27 -3 -61 -8 -75 -11 -14 -2 -45 -7 -70 -9 -25 -3 -76 -9 -115 -15 -142
-20 -213 -25 -345 -25 -121 0 -222 8 -240 19 -4 2 -22 7 -40 10 -103 18 -271
137 -358 254 -15 20 -29 38 -33 41 -11 10 -66 95 -90 140 -13 25 -26 47 -29
50 -3 3 -69 133 -147 290 -78 157 -170 328 -204 380 -76 114 -195 236 -304
312 -89 61 -306 188 -323 188 -6 0 -17 6 -24 13 -7 6 -38 24 -68 39 -245 121
-418 234 -525 342 -82 82 -104 112 -144 193 -25 51 -33 74 -48 133 -12 49 -18
130 -16 235 2 154 8 203 44 400 12 61 22 119 24 130 1 11 5 34 8 50 39 205 53
445 35 580 -20 139 -82 300 -228 594 -110 220 -156 318 -179 381 -7 19 -17 44
-21 55 -4 11 -15 45 -23 75 -8 30 -19 71 -24 91 -18 65 -9 266 15 337 47 137
126 262 252 393 25 26 55 58 66 70 12 13 72 71 134 129 245 228 440 439 440
476 0 7 3 14 8 16 24 11 122 252 137 340 3 17 8 34 10 38 2 4 7 20 9 36 3 16
8 40 11 54 3 14 9 50 15 80 6 30 12 64 14 75 2 11 7 40 11 65 4 25 9 52 10 61
2 9 6 34 9 55 40 257 116 484 203 602 55 74 147 151 233 195 47 24 96 47 110
51 14 5 30 10 35 11 29 10 128 35 165 41 19 3 38 8 43 11 4 2 24 6 45 8 20 2
53 7 72 10 19 3 51 8 70 10 41 4 128 16 152 20 15 3 54 26 83 47 41 31 59 47
54 48 -3 0 -8 -2 -10 -4z"/>
<path d="M2872 8863 c-79 -32 -185 -106 -216 -152 -71 -102 -62 -153 79 -446
34 -71 72 -152 85 -180 31 -69 60 -134 114 -249 25 -54 46 -100 46 -102 0 -2
89 -185 199 -406 109 -222 199 -415 200 -428 2 -46 3 -105 1 -110 -1 -3 -3
-18 -5 -35 -11 -89 -47 -158 -104 -199 -37 -27 -51 -31 -105 -31 -85 1 -143
32 -242 130 -60 60 -90 99 -118 155 -53 108 -53 161 0 211 l25 23 44 -24 c24
-13 49 -33 55 -44 15 -28 83 -76 108 -76 44 0 75 57 68 124 -7 76 -46 130
-120 166 -50 24 -142 11 -201 -30 -149 -102 -215 -230 -209 -406 3 -94 35
-188 91 -268 32 -45 35 -53 29 -100 -3 -28 -10 -65 -16 -82 -10 -27 -15 -31
-42 -29 -17 2 -57 -6 -87 -17 -31 -11 -83 -20 -117 -21 -107 -3 -172 -66 -233
-227 -88 -232 15 -482 249 -604 79 -41 153 -59 236 -58 55 0 66 -3 91 -27 66
-63 82 -125 48 -179 -18 -27 -85 -91 -96 -92 -3 0 -17 -10 -30 -21 -24 -22
-194 -107 -226 -114 -10 -2 -40 -8 -67 -15 -56 -12 -44 -21 -151 105 -63 74
-101 108 -156 143 -79 50 -135 68 -243 77 -257 23 -472 -187 -555 -543 -30
-127 -35 -175 -35 -337 0 -128 14 -310 24 -310 1 0 4 -13 6 -30 3 -16 10 -46
16 -65 12 -36 13 -40 21 -75 9 -37 66 -174 108 -258 178 -355 492 -630 829
-728 25 -7 52 -14 60 -15 8 -1 34 -6 58 -12 63 -15 289 -12 358 4 32 8 68 16
79 18 28 5 136 51 182 77 197 110 366 339 401 544 9 50 9 190 1 230 -31 146
-85 249 -183 353 -131 138 -350 237 -641 288 -106 19 -321 27 -385 14 -84 -17
-93 -20 -156 -40 -131 -44 -254 -152 -293 -256 l-21 -55 20 -56 c42 -119 135
-238 213 -273 l42 -19 50 48 c82 78 130 111 259 176 97 49 209 88 286 100 8 1
31 5 50 9 61 12 163 12 225 0 95 -19 100 -21 159 -50 159 -78 242 -270 195
-449 -12 -46 -60 -143 -86 -176 -78 -98 -197 -193 -293 -233 -25 -10 -53 -22
-63 -28 -11 -5 -21 -7 -24 -4 -3 3 -14 1 -25 -5 -39 -21 -202 -30 -305 -16
-80 10 -234 65 -319 113 -233 133 -422 352 -532 616 -28 68 -38 103 -48 173
-1 11 -3 20 -4 20 -1 0 -4 45 -6 100 -3 88 0 125 20 225 3 14 24 62 47 108 82
161 241 264 404 261 78 -2 142 -22 213 -68 66 -42 142 -118 142 -141 0 -6 4
-10 9 -10 5 0 13 -10 16 -21 6 -18 12 -20 44 -15 162 27 325 100 449 202 77
64 155 162 197 248 28 59 33 79 33 140 0 125 -55 235 -165 336 -37 34 -53 55
-44 58 28 9 116 89 149 134 47 66 76 175 68 254 -13 124 -91 257 -207 354
l-64 53 0 67 0 66 60 -25 c75 -30 217 -38 293 -16 169 50 296 211 301 379 l1
29 23 -34 c36 -53 87 -60 163 -21 82 41 97 61 98 124 0 39 -12 86 -48 183
-101 272 -130 453 -89 546 18 39 73 104 73 85 0 -4 8 -2 18 3 26 14 57 -10 72
-54 10 -29 8 -41 -9 -79 -11 -25 -33 -65 -49 -88 -82 -119 -90 -167 -40 -230
89 -113 306 -279 408 -313 44 -15 59 -16 93 -5 120 36 237 164 312 342 l28 67
28 -42 c15 -23 49 -58 76 -78 215 -163 471 -158 642 10 65 65 101 107 101 120
0 25 21 18 36 -11 25 -50 58 -78 99 -88 6 -1 18 -7 29 -12 29 -16 148 -12 212
7 103 30 232 105 298 173 37 38 44 60 25 79 -14 14 -37 6 -120 -44 -85 -51
-111 -62 -167 -69 -42 -5 -51 -2 -75 20 -48 45 -36 103 110 496 54 145 63 159
95 142 13 -6 46 -21 73 -33 28 -11 64 -27 80 -34 67 -30 116 -37 146 -23 21 9
52 75 43 89 -5 9 -143 80 -164 84 -3 1 -23 9 -45 19 -77 34 -90 39 -97 38 -18
-4 -5 33 51 150 55 115 105 223 137 293 41 92 71 184 69 212 -1 17 -9 43 -18
57 -35 53 -160 94 -289 94 -63 0 -78 -3 -107 -25 -43 -33 -61 -74 -117 -274
-25 -90 -57 -202 -71 -249 -13 -47 -25 -91 -25 -98 -1 -10 -11 -12 -37 -7 -20
4 -57 9 -83 11 -41 2 -50 -1 -68 -23 -11 -14 -20 -38 -20 -53 0 -31 26 -47
113 -70 41 -11 48 -16 44 -34 -2 -12 -18 -75 -36 -140 -26 -100 -56 -234 -78
-346 -2 -14 -26 -71 -53 -126 -85 -176 -196 -262 -324 -251 -73 6 -113 25
-165 78 -40 41 -86 125 -96 176 -45 219 -6 354 106 368 36 4 90 -39 118 -94
25 -47 48 -132 44 -153 -5 -20 -48 -36 -123 -43 -109 -11 -120 -18 -120 -67 0
-22 7 -29 38 -39 54 -18 246 -19 307 -2 54 16 67 24 104 65 61 69 38 249 -44
345 -74 87 -210 124 -359 98 -42 -7 -105 -27 -139 -43 -149 -70 -251 -238
-247 -407 0 -22 1 -48 1 -59 0 -38 -86 -208 -128 -251 -29 -30 -36 -33 -64
-25 -17 5 -49 20 -72 34 -53 30 -189 163 -223 217 l-25 41 44 91 c72 148 84
210 56 295 -20 61 -121 113 -209 106 -90 -7 -160 -43 -227 -119 -41 -44 -103
-158 -110 -199 -2 -10 -7 -25 -12 -34 -7 -13 -11 -9 -19 19 -11 37 -98 284
-108 309 -4 8 -8 20 -9 25 -1 6 -10 33 -20 60 -9 28 -18 57 -20 65 -2 8 -22
69 -44 135 -40 119 -88 274 -155 497 -19 65 -40 128 -47 140 -11 21 -57 67
-69 69 -45 8 -101 2 -148 -18z m-494 -2855 c4 -53 30 -102 62 -122 65 -38 187
-27 235 20 12 13 20 12 57 -7 62 -31 148 -99 170 -134 24 -40 23 -67 -4 -92
-58 -52 -144 -51 -308 2 -58 19 -148 75 -204 128 -75 70 -98 155 -54 197 25
23 44 26 46 8z"/>
<path d="M2375 8617 c-269 -57 -395 -108 -520 -210 -162 -132 -267 -362 -325
-712 -5 -33 -12 -71 -15 -85 -3 -14 -10 -53 -15 -88 -68 -415 -131 -560 -339
-777 -32 -33 -122 -121 -201 -195 -155 -147 -245 -238 -281 -285 -13 -16 -30
-37 -38 -45 -20 -20 -94 -136 -119 -185 -64 -129 -93 -317 -68 -455 3 -19 8
-48 11 -65 20 -110 69 -232 207 -513 133 -271 168 -346 173 -371 2 -9 11 -36
20 -60 34 -95 44 -173 40 -311 -3 -127 -8 -186 -20 -237 -3 -12 -7 -41 -10
-65 -3 -24 -8 -50 -10 -58 -2 -8 -7 -31 -10 -50 -3 -19 -12 -71 -20 -115 -8
-44 -17 -98 -20 -120 -3 -22 -9 -58 -13 -80 -14 -86 -6 -347 12 -420 39 -149
113 -273 228 -381 110 -103 228 -179 503 -324 405 -213 495 -281 625 -472 32
-48 121 -212 197 -365 215 -428 282 -525 458 -659 47 -37 172 -99 216 -108 13
-3 35 -8 49 -11 76 -18 152 -24 300 -20 91 2 174 6 185 8 12 3 48 8 80 12 33
4 67 9 76 10 9 2 40 6 70 10 30 4 65 9 79 11 14 1 52 6 85 9 33 4 76 8 95 11
44 5 248 6 275 0 11 -2 38 -6 60 -10 125 -21 282 -90 716 -319 183 -97 367
-164 484 -177 53 -6 189 -4 230 4 72 12 199 61 273 105 101 59 241 174 412
338 202 195 241 230 328 296 116 87 254 148 402 176 109 22 98 20 220 36 25 3
58 8 75 11 16 3 50 7 75 9 117 10 340 48 384 65 14 5 26 8 26 5 0 -2 30 7 68
20 383 134 534 355 627 915 22 132 48 272 56 310 6 25 13 56 15 70 10 55 48
167 75 228 56 121 122 206 283 361 337 327 401 392 460 471 215 288 242 559
91 930 -15 36 -77 169 -140 295 -246 501 -259 567 -200 990 2 11 10 58 19 105
31 169 55 316 62 385 51 482 -108 751 -601 1015 -44 23 -107 57 -140 75 -33
18 -100 54 -150 80 -141 75 -276 167 -353 241 l-71 69 -66 -60 -66 -60 63 -61
c119 -115 238 -196 473 -319 330 -173 462 -256 558 -352 137 -136 186 -269
182 -485 -2 -85 -21 -251 -41 -351 -4 -24 -12 -67 -18 -107 -2 -14 -11 -63
-20 -110 -28 -153 -35 -228 -36 -355 0 -235 37 -359 223 -730 128 -257 172
-358 203 -464 71 -245 40 -415 -114 -621 -56 -75 -155 -176 -419 -430 -78 -74
-173 -175 -212 -224 -68 -86 -143 -221 -175 -316 -25 -75 -73 -287 -95 -425
-63 -385 -113 -549 -206 -680 -68 -95 -147 -153 -280 -205 -36 -14 -149 -47
-188 -54 -78 -14 -147 -25 -192 -31 -27 -3 -61 -7 -75 -10 -14 -2 -47 -7 -75
-10 -27 -3 -65 -8 -82 -11 -18 -2 -50 -6 -70 -9 -21 -3 -49 -7 -63 -10 -14 -3
-41 -7 -60 -9 -99 -13 -268 -65 -365 -113 -63 -31 -222 -136 -235 -153 -3 -4
-25 -24 -50 -45 -25 -21 -115 -104 -200 -185 -85 -81 -171 -162 -190 -178 -19
-17 -48 -43 -65 -58 -47 -41 -175 -123 -234 -150 -87 -40 -148 -52 -246 -49
-166 6 -227 26 -505 169 -515 264 -592 296 -772 329 -80 15 -334 16 -433 3
-45 -6 -180 -24 -230 -31 -11 -1 -49 -6 -85 -10 -36 -4 -74 -9 -85 -11 -36 -7
-189 -17 -247 -17 -153 1 -289 36 -383 98 -136 90 -231 228 -419 609 -275 555
-345 624 -951 941 -373 195 -514 325 -578 533 -24 77 -25 95 -22 235 2 84 6
168 10 187 7 40 41 238 50 290 3 19 12 71 20 115 24 140 27 167 30 305 5 251
-29 366 -230 771 -172 345 -224 491 -230 640 -2 69 1 100 19 187 11 51 79 172
143 255 37 48 130 147 206 220 349 333 431 424 510 563 51 90 109 255 131 374
3 14 10 50 16 80 6 30 12 66 15 80 58 336 61 350 100 495 27 99 98 234 157
297 48 51 121 103 188 136 36 17 169 59 210 67 19 3 42 8 50 10 28 7 115 19
123 17 11 -3 9 5 -20 94 -29 88 -26 87 -98 71z"/>
<path d="M7146 7702 c-28 -64 -60 -138 -72 -164 -21 -46 -21 -47 -2 -78 24
-40 66 -77 96 -85 19 -5 45 11 133 82 61 48 126 102 146 119 l36 32 -30 6
c-30 7 -59 -15 -220 -172 -31 -30 -59 -49 -66 -45 -6 4 37 52 112 124 l123
118 -33 14 c-55 23 -131 94 -152 140 -6 15 -14 27 -17 27 -3 0 -27 -53 -54
-118z"/>
<path d="M7000 7384 c-25 -19 -52 -40 -60 -47 -9 -7 -42 -32 -75 -57 -87 -65
-92 -71 -104 -115 -13 -47 -14 -65 -3 -50 4 6 47 46 97 90 163 145 210 194
200 204 -7 7 -25 -1 -55 -25z"/>
<path d="M6964 7276 c-55 -57 -105 -105 -110 -107 -5 -2 -51 -47 -102 -100
l-93 -96 67 2 c61 2 69 5 93 33 50 58 61 72 61 78 0 2 9 15 20 27 48 51 199
255 193 261 -14 14 -33 0 -129 -98z"/>
<path d="M7031 7240 c-45 -66 -79 -120 -77 -120 24 0 60 26 79 57 56 89 97
172 89 177 -5 3 -46 -48 -91 -114z"/>
<path d="M6225 7020 c-89 -20 -116 -59 -191 -280 -56 -166 -95 -240 -152 -291
-48 -42 -125 -71 -167 -63 -36 6 -31 -5 11 -22 38 -16 116 -21 156 -9 19 5 17
2 -8 -15 -17 -11 -58 -24 -90 -29 l-59 -8 30 -13 c17 -7 62 -13 101 -14 60 -1
79 4 139 33 80 40 184 138 260 248 28 40 55 72 62 73 6 0 17 -15 23 -34 6 -19
17 -39 25 -46 10 -9 14 -3 20 29 13 77 94 179 198 248 20 14 37 28 37 30 0 2
-18 12 -41 22 l-41 19 23 16 c26 18 27 17 -26 43 -102 51 -240 79 -310 63z"/>
<path d="M5235 6919 c-33 -10 -34 -10 -180 -34 -176 -28 -334 -69 -370 -96 -6
-4 -34 -17 -64 -28 -84 -34 -214 -101 -238 -124 -13 -11 -23 -31 -23 -44 0
-26 43 -109 126 -245 30 -48 54 -90 54 -94 0 -3 11 -20 25 -38 14 -18 25 -35
25 -39 0 -9 137 -232 227 -370 45 -70 83 -129 83 -132 0 -3 16 -29 35 -59 19
-30 35 -57 35 -60 0 -3 35 -61 78 -128 43 -68 97 -161 121 -208 96 -186 128
-209 156 -113 15 51 37 154 50 237 3 17 7 42 10 56 2 14 7 43 10 65 9 68 26
147 47 220 44 151 118 447 143 570 43 211 60 272 103 365 29 64 40 147 22 179
-15 28 -126 76 -260 112 -57 15 -176 19 -215 8z"/>
<path d="M6671 6850 c92 -175 65 -356 -75 -507 -50 -54 -180 -153 -200 -153
-4 0 18 25 48 56 85 85 131 157 159 254 12 41 13 58 8 145 l-2 30 -17 -39 -17
-38 2 63 c1 34 -1 67 -4 72 -3 5 -15 -13 -26 -39 -11 -27 -43 -82 -70 -122
-98 -143 -205 -215 -462 -309 -172 -63 -202 -79 -280 -158 -78 -78 -126 -153
-161 -254 -35 -100 -29 -211 16 -306 42 -87 88 -155 105 -155 3 0 1 8 -4 19
-6 10 -12 43 -14 74 -11 143 86 223 418 350 143 54 262 105 330 140 66 34 147
68 152 63 2 -2 -17 -29 -43 -61 -55 -68 -48 -68 85 -3 146 72 245 194 275 340
12 58 13 144 2 202 -7 37 -74 187 -104 233 -33 50 -119 143 -133 143 -5 0 1
-18 12 -40z"/>
<path d="M7940 6492 c0 -7 -14 -46 -31 -86 -30 -71 -32 -73 -62 -71 -38 4
-117 7 -135 6 -7 -1 17 -26 53 -57 73 -62 73 -63 36 -148 -24 -52 -32 -76 -26
-76 3 0 37 20 76 45 l72 44 66 -54 c36 -30 68 -55 71 -55 4 0 -2 30 -11 68
-27 103 -28 102 51 151 39 24 69 45 66 48 -2 2 -40 7 -83 10 -43 2 -81 8 -84
11 -4 4 -14 39 -23 77 -17 68 -36 115 -36 87z"/>
<path d="M4219 6470 c-116 -33 -370 -232 -480 -377 -24 -32 -46 -60 -49 -63
-6 -5 -32 -49 -91 -152 -82 -143 -169 -417 -160 -505 2 -19 74 -39 171 -48 31
-3 122 -27 204 -55 165 -56 240 -77 306 -85 40 -5 121 -18 175 -29 11 -2 72
-18 135 -35 97 -26 276 -67 370 -85 14 -2 84 -19 155 -36 156 -39 201 -45 210
-31 8 15 -9 43 -210 343 -196 291 -312 475 -380 603 -46 87 -63 117 -140 255
-20 36 -55 103 -77 150 -68 139 -90 164 -139 150z"/>
<path d="M8607 6005 c-31 -25 -143 -110 -249 -190 -106 -79 -198 -148 -203
-152 -6 -4 -46 -35 -90 -67 -79 -58 -201 -159 -220 -183 -5 -7 -36 -28 -68
-47 -32 -19 -76 -49 -97 -66 -38 -31 -58 -70 -37 -71 7 0 28 -2 47 -4 19 -2
67 -6 106 -9 39 -3 96 -11 125 -17 132 -26 147 -28 204 -34 28 -3 183 -8 345
-11 323 -6 358 -8 442 -18 63 -8 61 -11 38 64 -8 25 -14 47 -15 50 -5 22 -29
86 -34 93 -4 4 -27 10 -52 13 -76 10 -92 13 -99 21 -6 6 -38 94 -45 123 -2 7
-15 40 -25 65 -5 11 -21 56 -36 99 l-28 79 25 16 c13 9 41 32 62 51 l38 35
-32 95 c-17 52 -34 98 -38 102 -4 4 -32 -13 -64 -37z m-130 -525 c14 -50 24
-92 22 -93 -2 -1 -78 -1 -168 1 l-164 3 34 30 c19 16 57 43 84 61 49 32 58 39
120 91 36 31 36 31 72 -93z"/>
<path d="M6817 5985 c-29 -15 -99 -67 -128 -96 -8 -8 -56 -43 -106 -77 -49
-34 -164 -121 -254 -194 -228 -182 -291 -228 -394 -288 -92 -54 -190 -120
-400 -268 -66 -47 -122 -87 -124 -88 -2 -2 2 -10 8 -18 18 -21 178 -67 326
-93 11 -2 43 -7 70 -13 28 -5 67 -12 88 -15 58 -8 110 -16 137 -20 34 -6 165
-24 220 -30 25 -3 61 -7 80 -10 19 -3 51 -7 70 -9 19 -3 109 -14 200 -26 91
-12 183 -24 205 -26 22 -3 62 -11 88 -19 45 -13 196 -29 261 -28 42 1 60 26
62 86 2 62 15 179 20 189 6 10 6 189 0 216 -3 13 -8 32 -11 42 -3 10 -8 29
-10 41 -3 13 -13 66 -24 118 -11 53 -22 114 -25 136 -19 128 -51 211 -127 320
-70 102 -156 183 -194 185 -5 0 -23 -7 -38 -15z"/>
<path d="M3406 5222 c-27 -6 -38 -19 -68 -84 -58 -123 -87 -307 -65 -413 3
-16 19 -95 36 -175 16 -80 32 -158 35 -175 21 -125 52 -205 122 -320 13 -22
38 -69 55 -105 34 -70 53 -90 82 -84 38 7 186 89 334 185 84 55 155 99 159 99
3 0 18 8 32 19 15 10 50 31 77 45 28 15 57 31 65 36 8 6 83 49 165 96 195 112
186 107 322 193 140 89 304 205 339 240 45 45 33 54 -111 85 -308 67 -395 83
-480 92 -54 5 -130 19 -185 35 -19 5 -93 25 -165 45 -71 19 -161 44 -200 55
-79 22 -78 22 -160 43 -33 8 -76 18 -95 21 -44 7 -103 23 -158 41 -63 21 -114
31 -136 26z"/>
<path d="M5400 4802 c0 -21 184 -291 297 -437 83 -107 150 -189 183 -225 42
-47 69 -86 165 -235 31 -49 66 -102 76 -117 10 -15 19 -30 19 -32 0 -3 48 -77
106 -163 59 -87 121 -179 138 -206 28 -42 34 -47 62 -43 75 10 163 70 264 180
73 79 89 98 138 161 25 33 49 62 52 65 15 14 64 99 114 197 30 61 67 128 81
149 25 37 59 137 69 204 14 86 18 198 9 203 -10 6 -146 28 -252 42 -23 3 -55
7 -70 10 -15 3 -43 7 -62 9 -39 5 -127 24 -284 61 -60 14 -126 28 -145 31 -19
3 -42 7 -50 9 -8 2 -31 7 -50 10 -36 6 -130 22 -165 29 -11 2 -45 7 -75 12
-30 4 -57 8 -60 9 -5 1 -79 12 -150 22 -70 9 -86 13 -143 32 -31 11 -57 18
-57 16 0 -3 -12 0 -26 6 -15 5 -62 12 -105 15 -74 6 -79 5 -79 -14z"/>
<path d="M5316 4728 c-8 -13 -26 -54 -41 -91 -22 -59 -33 -98 -51 -182 -7 -35
-15 -98 -19 -160 -5 -92 -16 -214 -21 -238 -2 -12 -6 -37 -9 -57 -7 -47 -6
-44 -53 -265 -22 -104 -43 -210 -47 -235 -6 -41 -17 -100 -29 -155 -11 -54
-31 -116 -57 -183 -29 -72 -39 -138 -25 -160 18 -30 124 -62 205 -62 37 0 97
-8 133 -19 66 -18 141 -21 185 -7 12 4 30 8 40 10 39 8 191 48 250 66 63 19
130 50 233 107 30 17 93 43 140 58 118 38 170 69 170 101 0 15 -41 88 -104
182 -56 86 -128 198 -159 247 -30 50 -73 110 -95 135 -21 25 -57 81 -79 126
-25 49 -117 182 -241 347 -141 188 -213 292 -240 350 -48 101 -65 118 -86 85z"/>
<path d="M5090 4654 c-47 -36 -107 -77 -135 -91 -57 -29 -262 -161 -470 -302
-314 -213 -409 -270 -545 -326 -176 -73 -243 -120 -235 -165 18 -103 109 -213
307 -373 51 -41 113 -94 138 -117 82 -76 236 -156 396 -205 49 -16 117 -41
151 -56 91 -41 110 -45 134 -23 32 29 70 111 75 162 3 26 7 63 9 82 4 34 28
170 39 220 3 14 10 48 15 75 5 28 28 133 51 235 38 170 74 339 85 400 3 14 7
36 10 50 3 14 8 40 11 59 2 19 6 37 8 40 3 4 7 27 11 51 4 25 18 97 32 160 31
137 34 183 13 187 -8 2 -53 -27 -100 -63z"/>
<path d="M7632 4507 c-6 -7 -14 -35 -17 -62 -3 -28 -8 -61 -10 -75 -2 -14 -7
-50 -10 -80 -10 -89 -13 -103 -41 -176 -31 -82 -38 -102 -69 -219 -13 -49 -34
-112 -46 -140 -13 -27 -24 -54 -25 -60 -1 -5 -9 -29 -17 -52 l-16 -42 32 -7
c18 -3 36 -9 42 -12 12 -8 41 -13 83 -15 34 -2 34 -2 74 98 22 55 41 107 43
115 2 8 22 69 44 135 23 65 41 134 41 152 0 23 5 33 15 33 17 0 75 -53 91 -82
8 -14 73 -88 197 -222 20 -23 50 -55 65 -71 243 -271 411 -445 429 -445 18 0
33 34 40 88 3 26 13 61 23 78 10 17 37 92 60 165 23 74 45 141 48 149 3 8 6
17 7 20 6 19 29 96 30 100 1 3 13 43 28 90 14 47 29 99 32 115 3 17 7 42 10
57 5 27 -15 57 -38 59 -13 1 -23 3 -87 18 -25 6 -50 11 -57 11 -13 0 -32 -30
-38 -58 -6 -32 -57 -217 -75 -272 -15 -48 -79 -209 -86 -218 -2 -3 -82 72
-244 229 -68 66 -130 135 -165 183 -11 16 -24 33 -30 40 -5 6 -23 31 -40 56
-16 24 -56 71 -87 104 -32 33 -58 61 -58 63 0 2 -15 18 -34 36 -19 18 -52 52
-73 77 -43 49 -56 56 -71 37z"/>
<path d="M6987 3198 c-79 -79 -152 -141 -203 -173 -43 -27 -86 -55 -94 -62 -8
-7 -40 -32 -70 -57 -30 -24 -86 -63 -125 -86 -118 -70 -125 -75 -125 -84 0 -8
50 -76 76 -103 7 -7 14 -18 16 -24 7 -21 49 -2 163 71 161 103 265 177 307
217 l36 35 13 -23 c7 -13 14 -60 15 -104 1 -44 5 -100 8 -125 3 -25 8 -83 11
-130 3 -47 8 -101 11 -120 3 -19 7 -69 10 -110 3 -41 7 -91 8 -110 12 -132 17
-188 22 -210 2 -14 6 -41 8 -60 9 -93 17 -120 37 -120 11 0 41 20 67 44 26 24
67 53 90 65 24 12 117 75 205 138 89 64 198 142 242 174 86 61 165 132 165
148 0 13 -99 130 -120 141 -15 8 -41 -9 -141 -87 -123 -95 -290 -209 -339
-230 -24 -10 -26 -9 -28 20 -4 50 -23 168 -39 242 -12 56 -13 70 -18 210 -11
311 -14 371 -19 400 -3 17 -8 71 -11 120 -3 50 -8 96 -10 103 -11 33 -51 7
-168 -110z"/>
<path d="M5770 2518 c-19 -4 -48 -10 -63 -12 -94 -15 -97 -18 -76 -86 12 -40
11 -40 38 -140 19 -68 35 -159 46 -250 8 -70 24 -146 40 -190 9 -25 18 -65 20
-90 10 -106 18 -149 45 -220 15 -41 34 -101 40 -132 8 -36 19 -59 29 -62 40
-12 72 -14 108 -5 21 6 47 11 58 12 17 2 20 9 19 57 0 56 -10 126 -19 140 -3
5 -7 21 -9 37 -2 15 -27 116 -56 223 -62 236 -97 375 -104 415 -3 17 -14 55
-25 86 -11 30 -22 77 -26 105 -8 73 -16 114 -24 118 -3 1 -22 -1 -41 -6z"/>
<path d="M4189 2501 c-1 -6 -2 -14 -3 -18 -2 -5 -6 -30 -10 -58 -4 -27 -10
-61 -13 -75 -4 -21 -10 -221 -17 -548 0 -28 -3 -52 -6 -52 -3 0 -6 -53 -8
-118 -1 -64 -4 -155 -6 -202 -2 -47 -1 -90 1 -96 2 -6 23 -11 46 -13 23 -1 62
-4 87 -6 25 -2 52 0 59 4 9 6 14 45 17 137 5 146 7 171 19 234 5 25 9 52 10
60 2 44 37 50 126 24 102 -31 213 -12 317 55 161 103 220 232 188 406 -22 118
-103 182 -289 230 -93 23 -107 25 -302 30 -60 1 -134 6 -162 10 -37 5 -53 4
-54 -4z m392 -222 c29 -1 142 -63 160 -89 44 -59 19 -146 -54 -193 -33 -21
-137 -30 -227 -20 l-65 8 -1 117 c-2 184 -2 185 108 180 35 -1 70 -3 79 -3z"/>
<path d="M3249 2438 c-8 -18 -14 -35 -15 -38 0 -3 -9 -24 -18 -48 l-18 -43
-92 6 -91 6 25 -22 c14 -12 45 -39 69 -60 l44 -40 -35 -84 -36 -84 47 26 c25
15 58 35 73 45 36 25 47 23 89 -15 20 -17 49 -43 64 -56 l28 -23 -7 33 c-4 19
-9 41 -11 49 -2 8 -8 34 -13 57 l-9 41 74 47 c41 26 73 48 71 50 -4 3 -114 14
-149 15 -24 0 -27 6 -43 73 -23 97 -30 106 -47 65z"/>
</g>
</svg>
